<?xml version="1.0" standalone="no"?>
<!DOCTYPE svg PUBLIC "-//W3C//DTD SVG 20010904//EN"
 "http://www.w3.org/TR/2001/REC-SVG-20010904/DTD/svg10.dtd">
<svg version="1.0" xmlns="http://www.w3.org/2000/svg"
 width="145.000000pt" height="150.000000pt" viewBox="0 0 145.000000 150.000000"
 preserveAspectRatio="xMidYMid meet">

<g transform="translate(0.000000,150.000000) scale(0.100000,-0.100000)"
fill="#000000" stroke="none">
<path d="M0 750 l0 -750 725 0 725 0 0 750 0 750 -725 0 -725 0 0 -750z m890
511 c0 -5 -112 -198 -250 -429 -138 -232 -250 -425 -250 -431 0 -8 86 -11 273
-11 l272 0 27 -50 28 -50 -396 0 c-218 0 -394 4 -392 8 2 5 144 246 317 535
l315 527 28 -45 c15 -25 28 -49 28 -54z m54 -285 c31 -52 56 -97 56 -101 0 -4
-24 7 -53 24 l-53 30 -84 -141 c-47 -78 -95 -159 -108 -180 l-23 -38 205 0
205 0 3 76 3 75 70 -117 c39 -65 72 -121 73 -126 2 -4 -159 -8 -357 -8 -241 0
-361 3 -361 10 0 18 352 600 360 595 4 -2 33 -47 64 -99z"/>
</g>
</svg>
